<svg width="77" height="75" viewBox="0 0 77 75" fill="none" xmlns="http://www.w3.org/2000/svg">
<path d="M39.0937 9.61932L37.9062 11.9324L42.4828 14.1612V21.1207H45.1379V12.5629L39.0937 9.61932Z" fill="#F2A922"/>
<path d="M51.4846 30.3089L50.2971 32.6221L54.8736 34.8508V41.8103H57.5288V33.2525L51.4846 30.3089Z" fill="#F2A922"/>
<path d="M63.8754 50.9985L62.6878 53.3119L67.2644 55.5408V62.5002H69.9196V53.9421L63.8754 50.9985Z" fill="#F2A922"/>
<path d="M77 24.4575V9.16451L63.3188 1.52798L50.8928 8.42447L38.5375 1.52798L26.1113 8.42447L13.7559 1.52798L9.52108 3.87818L10.8355 6.12524L13.7519 4.5066L24.7815 10.6632V22.9565L13.7184 29.1141L2.65515 22.9565V10.6653L7.29469 8.09034L5.98026 5.84326L0 9.16244V24.4575L12.3909 31.3541V43.672L0 50.5415V65.8364L13.7184 73.4718L26.1091 66.5753L38.5 73.4718L50.8909 66.5753L63.2816 73.4718L68.5874 70.5191L67.2701 68.2737L63.2816 70.4935L52.2184 64.3359V52.045L63.3152 45.886L74.3448 52.0425V64.3359L70.3666 66.5502L71.6839 68.7952L77 65.8369V50.5435L64.6092 43.6273V31.3538L77 24.4575ZM27.4368 10.6654L38.5335 4.5066L49.5634 10.6633V22.9566L38.501 29.1137L27.437 22.9377L27.4368 10.6654ZM24.7817 64.3354L13.7185 70.4935L2.6553 64.3354V52.045L13.7352 45.9019L24.7818 52.044L24.7817 64.3354ZM15.046 43.6275V31.3554L26.1258 25.2126L37.1725 31.3542V43.646L26.1102 49.8031L15.046 43.6275ZM49.5632 64.3354L38.5 70.4935L27.4368 64.3359V52.045L38.5167 45.9022L49.5634 52.044L49.5632 64.3354ZM61.954 43.646L50.8917 49.8032L39.8277 43.6273V31.3553L50.9075 25.2124L61.954 31.3541V43.646ZM63.2826 29.1135L52.2184 22.9378V10.6653L63.3152 4.5066L74.3448 10.6632V22.9565L63.2826 29.1135Z" fill="#F2A922"/>
<path d="M63.8754 9.61932L62.6878 11.9324L67.2644 14.1612V21.1207H69.9196V12.5629L63.8754 9.61932Z" fill="#F2A922"/>
<path d="M39.0937 50.9985L37.9062 53.3119L42.4828 55.5408V62.5002H45.1379V53.9421L39.0937 50.9985Z" fill="#F2A922"/>
<path d="M14.3121 50.9985L13.1248 53.3119L17.7011 55.5408V62.5002H20.3563V53.9421L14.3121 50.9985Z" fill="#F2A922"/>
<path d="M26.7029 30.3089L25.5154 32.6221L30.092 34.8508V41.8103H32.7471V33.2525L26.7029 30.3089Z" fill="#F2A922"/>
<path d="M14.3121 9.61932L13.1248 11.9324L17.7011 14.1612V21.1207H20.3563V12.5629L14.3121 9.61932Z" fill="#F2A922"/>
</svg>
